<svg version="1.1" id="Layer_1" xmlns="http://www.w3.org/2000/svg" xmlns:xlink="http://www.w3.org/1999/xlink" x="0px" y="0px"
	 width="100%" viewBox="0 0 64 64" enable-background="new 0 0 64 64" xml:space="preserve">
<path fill="#64E8C6" opacity="1.000000" stroke="none" 
	d="
M44.000557,65.000000 
	C29.333736,65.000000 15.167089,65.000000 1.000331,65.000000 
	C1.000221,43.666843 1.000221,22.333683 1.000110,1.000394 
	C22.333130,1.000262 43.666260,1.000262 64.999542,1.000131 
	C64.999695,22.333101 64.999695,43.666203 64.999847,64.999649 
	C58.166912,65.000000 51.333820,65.000000 44.000557,65.000000 
M40.169453,54.972954 
	C47.851212,51.955219 52.299362,46.378258 52.943462,38.130909 
	C53.583122,29.940388 48.509243,22.221922 40.914085,19.260206 
	C33.232349,16.264732 24.633688,18.543182 19.281496,24.992344 
	C14.160834,31.162529 13.558818,39.971531 17.785461,46.883167 
	C22.288689,54.247089 30.306618,57.325802 40.169453,54.972954 
M10.772481,49.980579 
	C10.362060,48.481144 9.951637,46.981705 9.541215,45.482269 
	C8.771209,45.559628 8.001203,45.636982 7.231196,45.714340 
	C7.231196,48.870441 7.155532,52.028744 7.247342,55.182175 
	C7.424758,61.276024 9.714972,63.655216 15.811309,63.703903 
	C27.947374,63.800827 40.093456,63.975319 52.214779,63.541531 
	C54.861469,63.446815 58.773933,61.545303 59.736721,59.409180 
	C61.667252,55.125935 61.607292,50.137444 58.727974,45.653595 
	C57.663815,47.760010 57.280109,49.885384 57.254337,52.015091 
	C57.155479,60.183811 57.198338,60.187603 48.873947,60.190792 
	C39.230965,60.194485 29.587984,60.192596 19.945002,60.191422 
	C10.784436,60.190304 10.784436,60.189331 10.772481,49.980579 
M34.347370,14.760452 
	C35.662941,12.293465 36.978512,9.826476 38.832615,6.349627 
	C37.859196,5.529668 35.985813,2.725730 34.252541,2.809822 
	C32.203594,2.909228 30.275656,5.502833 29.103617,6.397902 
	C30.969215,9.873882 32.274914,12.306661 34.347370,14.760452 
z"/>
<path fill="#48525A" opacity="1.000000" stroke="none" 
	d="
M39.776203,55.074547 
	C30.306618,57.325802 22.288689,54.247089 17.785461,46.883167 
	C13.558818,39.971531 14.160834,31.162529 19.281496,24.992344 
	C24.633688,18.543182 33.232349,16.264732 40.914085,19.260206 
	C48.509243,22.221922 53.583122,29.940388 52.943462,38.130909 
	C52.299362,46.378258 47.851212,51.955219 39.776203,55.074547 
M33.197163,21.038010 
	C23.702118,22.432207 17.677860,29.017731 18.012304,37.637608 
	C18.340910,46.107014 24.929955,52.383957 34.763233,52.952595 
	C44.319912,51.513317 50.326481,44.960785 49.981880,36.350655 
	C49.642052,27.859625 43.028778,21.577429 33.197163,21.038010 
z"/>
<path fill="#4B6E6D" opacity="1.000000" stroke="none" 
	d="
M10.773058,50.411377 
	C10.784436,60.189331 10.784436,60.190304 19.945002,60.191422 
	C29.587984,60.192596 39.230965,60.194485 48.873947,60.190792 
	C57.198338,60.187603 57.155479,60.183811 57.254337,52.015091 
	C57.280109,49.885384 57.663815,47.760010 58.727974,45.653595 
	C61.607292,50.137444 61.667252,55.125935 59.736721,59.409180 
	C58.773933,61.545303 54.861469,63.446815 52.214779,63.541531 
	C40.093456,63.975319 27.947374,63.800827 15.811309,63.703903 
	C9.714972,63.655216 7.424758,61.276024 7.247342,55.182175 
	C7.155532,52.028744 7.231196,48.870441 7.231196,45.714340 
	C8.001203,45.636982 8.771209,45.559628 9.541215,45.482269 
	C9.951637,46.981705 10.362060,48.481144 10.773058,50.411377 
z"/>
<path fill="#486164" opacity="1.000000" stroke="none" 
	d="
M33.963993,14.749947 
	C32.274914,12.306661 30.969215,9.873882 29.103617,6.397902 
	C30.275656,5.502833 32.203594,2.909228 34.252541,2.809822 
	C35.985813,2.725730 37.859196,5.529668 38.832615,6.349627 
	C36.978512,9.826476 35.662941,12.293465 33.963993,14.749947 
z"/>
<path fill="#DEE6EE" opacity="1.000000" stroke="none" 
	d="
M33.977028,52.846138 
	C24.929955,52.383957 18.340910,46.107014 18.012304,37.637608 
	C17.677860,29.017731 23.702118,22.432207 33.603912,21.446785 
	C34.049946,22.798948 34.089233,23.742336 33.720875,24.761246 
	C25.546928,25.727852 21.914898,29.668341 21.951578,37.163326 
	C21.988033,44.612190 25.699688,48.314438 34.113159,49.662865 
	C34.057701,50.959759 34.017365,51.902946 33.977028,52.846138 
z"/>
<path fill="#C4D4E3" opacity="1.000000" stroke="none" 
	d="
M34.128521,24.685726 
	C34.089233,23.742336 34.049946,22.798948 33.994400,21.501827 
	C43.028778,21.577429 49.642052,27.859625 49.981880,36.350655 
	C50.326481,44.960785 44.319912,51.513317 34.370132,52.899368 
	C34.017365,51.902946 34.057701,50.959759 34.501480,49.604225 
	C42.552860,48.172977 46.227158,44.050426 46.123360,36.604843 
	C46.024502,29.514273 42.113773,25.628227 34.128521,24.685726 
z"/>
<path fill="#FDFDFE" opacity="1.000000" stroke="none" 
	d="
M33.720875,24.761246 
	C42.113773,25.628227 46.024502,29.514273 46.123360,36.604843 
	C46.227158,44.050426 42.552860,48.172977 34.516602,49.250519 
	C25.699688,48.314438 21.988033,44.612190 21.951578,37.163326 
	C21.914898,29.668341 25.546928,25.727852 33.720875,24.761246 
M29.653538,36.684803 
	C31.392418,37.706078 33.131298,38.727356 34.870174,39.748631 
	C34.719517,40.092354 34.568855,40.436077 34.418198,40.779804 
	C32.784191,40.648006 31.150181,40.516209 29.516172,40.384411 
	C29.273693,40.864010 29.031216,41.343613 28.788736,41.823212 
	C30.493523,42.801159 32.223545,44.572937 33.895554,44.519783 
	C35.381241,44.472561 38.170235,42.125023 37.998463,41.274712 
	C37.461746,38.617847 35.795738,36.189110 34.453445,33.438343 
	C34.670765,33.311462 35.828701,32.635399 36.986641,31.959337 
	C36.935982,31.469475 36.885319,30.979612 36.834660,30.489750 
	C34.781075,30.489750 32.317558,29.808195 30.809528,30.715227 
	C29.694592,31.385828 29.824202,34.125610 29.653538,36.684803 
z"/>
<path fill="#A9C1D8" opacity="1.000000" stroke="none" 
	d="
M29.526443,36.314171 
	C29.824202,34.125610 29.694592,31.385828 30.809528,30.715227 
	C32.317558,29.808195 34.781075,30.489750 36.834660,30.489750 
	C36.885319,30.979612 36.935982,31.469475 36.986641,31.959337 
	C35.828701,32.635399 34.670765,33.311462 34.453445,33.438343 
	C35.795738,36.189110 37.461746,38.617847 37.998463,41.274712 
	C38.170235,42.125023 35.381241,44.472561 33.895554,44.519783 
	C32.223545,44.572937 30.493523,42.801159 28.788736,41.823212 
	C29.031216,41.343613 29.273693,40.864010 29.516172,40.384411 
	C31.150181,40.516209 32.784191,40.648006 34.418198,40.779804 
	C34.568855,40.436077 34.719517,40.092354 34.870174,39.748631 
	C33.131298,38.727356 31.392418,37.706078 29.526443,36.314171 
z"/>
</svg>